# xmcd
#
# Track frame offsets: 
#        150
#        27115
#        146072
#        204120
#
# Disc length: 3018 seconds
#
# Revision: 2
# Processed by: cddbd v1.5.2PL0 Copyright (c) Steve Scherf et al.
# Submitted via: ExactAudioCopy v0.99pb5
#
DISCID=2d0bc804
DTITLE=Craig Kohland and Shaman's Dream - Breathing
DYEAR=1996
DGENRE=Meditative
TTITLE0=Breathing In
TTITLE1=Summer Night's Compassion
TTITLE2=Healing Seas
TTITLE3=Breathing Out
EXTD=
EXTT0=
EXTT1=
EXTT2=
EXTT3=
PLAYORDER=
